<svg width="419" height="474" viewBox="0 0 419 474" fill="none" xmlns="http://www.w3.org/2000/svg">
<path d="M193.923 294.813C199.341 299.862 202.417 305.74 203.151 312.447C203.882 319.088 202.059 324.757 197.68 329.455C195.379 331.924 192.76 333.84 189.823 335.204C186.852 336.536 182.74 337.477 177.486 338.027C172.263 338.542 168.753 339.147 166.953 339.84C165.153 340.534 163.582 341.601 162.24 343.041C159.747 345.716 158.756 348.636 159.265 351.802C159.74 354.936 161.59 358.005 164.813 361.009L157.198 369.387C151.711 364.273 148.672 358.494 148.08 352.047C147.488 345.6 149.413 339.994 153.856 335.227C156.284 332.621 159.166 330.629 162.5 329.251C165.835 327.874 170.297 326.97 175.887 326.541C181.443 326.08 185.415 324.912 187.803 323.037L189.296 321.641C191.725 319.035 192.696 315.999 192.209 312.534C191.754 309.034 189.898 305.767 186.64 302.731L193.923 294.813Z" fill="white"/>
<path d="M224.872 229.336C230.29 234.386 233.366 240.264 234.099 246.971C234.831 253.611 233.007 259.281 228.629 263.979C226.328 266.448 223.709 268.364 220.772 269.728C217.801 271.059 213.688 272 208.434 272.55C203.212 273.066 199.701 273.67 197.901 274.364C196.102 275.057 194.531 276.124 193.189 277.565C190.696 280.239 189.704 283.16 190.214 286.326C190.689 289.46 192.538 292.529 195.762 295.533L188.147 303.91C182.66 298.797 179.621 293.017 179.029 286.57C178.437 280.124 180.362 274.517 184.804 269.751C187.233 267.145 190.115 265.153 193.449 263.775C196.784 262.397 201.246 261.494 206.836 261.065C212.391 260.604 216.363 259.436 218.752 257.561L220.245 256.165C222.673 253.559 223.644 250.523 223.158 247.057C222.703 243.558 220.846 240.29 217.589 237.254L224.872 229.336Z" fill="white"/>
<path d="M255.089 163.178C260.507 168.227 263.583 174.105 264.316 180.812C265.048 187.453 263.224 193.122 258.846 197.82C256.545 200.289 253.926 202.205 250.989 203.569C248.018 204.901 243.905 205.842 238.651 206.392C233.429 206.907 229.918 207.512 228.118 208.205C226.319 208.899 224.748 209.966 223.405 211.406C220.913 214.081 219.921 217.001 220.431 220.167C220.906 223.301 222.755 226.37 225.979 229.374L218.363 237.752C212.877 232.638 209.837 226.859 209.246 220.412C208.654 213.965 210.579 208.359 215.021 203.592C217.45 200.986 220.332 198.994 223.666 197.616C227 196.239 231.463 195.335 237.053 194.906C242.608 194.445 246.58 193.277 248.969 191.402L250.462 190.006C252.89 187.4 253.861 184.364 253.375 180.899C252.92 177.399 251.063 174.132 247.806 171.096L255.089 163.178Z" fill="white"/>
<path d="M192.656 102.276L203.836 90.2796L229.4 114.104L209.872 135.059L248.74 171.233L255.624 163.847L224.192 134.554L243.721 113.6L210.769 82.8409L221.949 70.8446L191.587 71.9139L192.656 102.276Z" fill="white"/>
<path d="M167.667 461.167L270.333 461.167C277.392 461.167 283.167 455.392 283.167 448.333L283.167 332.833L257.5 358.5L167.667 358.5C160.608 358.5 154.833 364.275 154.833 371.333L154.833 448.333C154.833 455.392 160.608 461.167 167.667 461.167ZM167.667 371.333L257.5 371.333L270.333 358.5L270.333 448.333L167.667 448.333L167.667 371.333ZM251.083 416.25L238.25 416.25L238.25 403.417L251.083 403.417L251.083 416.25ZM225.417 416.25L212.583 416.25L212.583 403.417L225.417 403.417L225.417 416.25ZM199.75 416.25L186.917 416.25L186.917 403.417L199.75 403.417L199.75 416.25Z" fill="white"/>
</svg>
