<svg width="243" height="470" viewBox="0 0 243 470" fill="none" xmlns="http://www.w3.org/2000/svg">
<path d="M31.4062 104.391H50.4375V112.594H31.4062V134.156H22.6875V112.594H3.65625V104.391H22.6875V84.4688H31.4062V104.391Z" fill="white"/>
<path d="M59.4062 142.391H78.4375V150.594H59.4062V172.156H50.6875V150.594H31.6562V142.391H50.6875V122.469H59.4062V142.391Z" fill="white"/>
<path d="M192.406 143.391H211.438V151.594H192.406V173.156H183.688V151.594H164.656V143.391H183.688V123.469H192.406V143.391Z" fill="white"/>
<path d="M219.406 105.391H238.438V113.594H219.406V135.156H210.688V113.594H191.656V105.391H210.688V85.4688H219.406V105.391Z" fill="white"/>
<path d="M154.391 104.594L154.391 85.5625L162.594 85.5625L162.594 104.594L184.156 104.594L184.156 113.312L162.594 113.312L162.594 132.344L154.391 132.344L154.391 113.312L134.469 113.312L134.469 104.594L154.391 104.594ZM154.391 50.125L154.391 31.0937L162.594 31.0937L162.594 50.125L184.156 50.125L184.156 58.8437L162.594 58.8437L162.594 77.875L154.391 77.875L154.391 58.8437L134.469 58.8437L134.469 50.125L154.391 50.125Z" fill="white"/>
<path d="M117.391 77.5937L117.391 58.5625L125.594 58.5625L125.594 77.5937L147.156 77.5937L147.156 86.3125L125.594 86.3125L125.594 105.344L117.391 105.344L117.391 86.3125L97.4687 86.3125L97.4687 77.5937L117.391 77.5937ZM117.391 23.125L117.391 4.09375L125.594 4.09375L125.594 23.125L147.156 23.125L147.156 31.8437L125.594 31.8437L125.594 50.875L117.391 50.875L117.391 31.8437L97.4687 31.8437L97.4687 23.125L117.391 23.125Z" fill="white"/>
<path d="M79.3906 104.594L79.3906 85.5625L87.5937 85.5625L87.5937 104.594L109.156 104.594L109.156 113.312L87.5937 113.312L87.5937 132.344L79.3906 132.344L79.3906 113.312L59.4687 113.312L59.4687 104.594L79.3906 104.594ZM79.3906 50.125L79.3906 31.0937L87.5937 31.0937L87.5937 50.125L109.156 50.125L109.156 58.8437L87.5937 58.8437L87.5937 77.875L79.3906 77.875L79.3906 58.8437L59.4687 58.8437L59.4687 50.125L79.3906 50.125Z" fill="white"/>
<path fill-rule="evenodd" clip-rule="evenodd" d="M79.1282 254.172C67.8326 242.876 49.5189 242.876 38.2233 254.172L37.1717 255.223C25.8761 266.519 25.8761 284.832 37.1717 296.128L45.8468 304.803C47.5602 306.516 50.3382 306.516 52.0516 304.803C53.7651 303.09 53.7651 300.312 52.0516 298.598L43.3766 289.923C35.5079 282.054 35.5079 269.297 43.3766 261.428L44.4281 260.376C52.2969 252.508 65.0546 252.508 72.9234 260.376L81.5984 269.051C83.3118 270.765 86.0898 270.765 87.8033 269.051C89.5167 267.338 89.5167 264.56 87.8033 262.847L79.1282 254.172ZM59.2351 276.235C57.5217 277.948 57.5217 280.726 59.2351 282.44L85.5601 308.765C87.2735 310.478 90.0516 310.478 91.765 308.765C93.4784 307.051 93.4784 304.273 91.765 302.56L65.44 276.235C63.7266 274.521 60.9485 274.521 59.2351 276.235ZM98.9485 280.197C97.235 281.91 97.235 284.688 98.9485 286.401L107.623 295.076C115.492 302.945 115.492 315.703 107.623 323.572L106.572 324.623C98.7032 332.492 85.9455 332.492 78.0767 324.623L69.4017 315.948C67.6883 314.235 64.9102 314.235 63.1968 315.948C61.4834 317.662 61.4834 320.44 63.1968 322.153L71.8719 330.828C83.1675 342.124 101.481 342.124 112.777 330.828L113.828 329.777C125.124 318.481 125.124 300.167 113.828 288.872L105.153 280.197C103.44 278.483 100.662 278.483 98.9485 280.197Z" fill="white"/>
<path d="M108.448 151.368L145.6 131.784L145.6 123.336L108.448 104.04L108.448 114.408L133.984 127.56L108.448 140.904L108.448 151.368ZM108.448 196.837L145.6 177.253L145.6 168.805L108.448 149.509L108.448 159.877L133.984 173.029L108.448 186.373L108.448 196.837ZM108.448 242.305L145.6 222.722L145.6 214.274L108.448 194.977L108.448 205.345L133.984 218.497L108.448 231.841L108.448 242.305ZM108.448 287.774L145.6 268.19L145.6 259.742L108.448 240.446L108.448 250.814L133.984 263.966L108.448 277.31L108.448 287.774ZM108.448 333.243L145.6 313.659L145.6 305.211L108.448 285.915L108.448 296.283L133.984 309.435L108.448 322.779L108.448 333.243ZM108.448 378.712L145.6 359.128L145.6 350.68L108.448 331.384L108.448 341.752L133.984 354.904L108.448 368.248L108.448 378.712ZM108.448 424.18L145.6 404.597L145.6 396.149L108.448 376.852L108.448 387.22L133.984 400.372L108.448 413.716L108.448 424.18ZM108.448 469.649L145.6 450.065L145.6 441.617L108.448 422.321L108.448 432.689L133.984 445.841L108.448 459.185L108.448 469.649Z" fill="white"/>
</svg>
