<svg width="211" height="442" viewBox="0 0 211 442" fill="none" xmlns="http://www.w3.org/2000/svg">
<path d="M74 174.872L74 181.4L120.4 199.576L120.4 192.984L74 174.872ZM74 193.497L74 200.025L120.4 218.201L120.4 211.609L74 193.497ZM74 212.122L74 218.65L120.4 236.826L120.4 230.234L74 212.122ZM74 230.747L74 237.275L120.4 255.451L120.4 248.859L74 230.747ZM74 249.372L74 255.9L120.4 274.076L120.4 267.484L74 249.372ZM74 267.997L74 274.525L120.4 292.701L120.4 286.109L74 267.997ZM74 286.622L74 293.15L120.4 311.326L120.4 304.734L74 286.622ZM74 305.247L74 311.775L120.4 329.951L120.4 323.359L74 305.247ZM74 323.872L74 330.4L120.4 348.576L120.4 341.984L74 323.872ZM74 342.497L74 349.025L120.4 367.201L120.4 360.609L74 342.497ZM74 361.122L74 367.65L120.4 385.826L120.4 379.234L74 361.122ZM74 379.747L74 386.275L120.4 404.451L120.4 397.859L74 379.747ZM74 398.372L74 404.9L120.4 423.076L120.4 416.484L74 398.372ZM74 416.997L74 423.525L120.4 441.701L120.4 435.109L74 416.997Z" fill="white"/>
<path fill-rule="evenodd" clip-rule="evenodd" d="M126.212 299.697C125.447 301.636 127.365 303.552 129.303 302.789L191.47 278.296C193.497 277.498 193.479 274.622 191.442 273.849L169.089 265.37L145.469 288.992C143.961 290.5 141.515 290.5 140.007 288.992C138.498 287.483 138.498 285.038 140.006 283.529L163.626 259.908L155.148 237.558C154.375 235.521 151.5 235.503 150.702 237.53L126.212 299.697ZM171.118 257.878L194.182 266.627C202.82 269.904 202.898 282.097 194.302 285.484L192.886 281.89L194.302 285.484L132.134 309.976C123.911 313.215 115.785 305.087 119.024 296.865L122.618 298.281L119.024 296.865L143.514 234.699C146.901 226.102 159.093 226.18 162.37 234.818L171.118 257.878Z" fill="white"/>
<path d="M118.458 98.375H70.5416C65.2708 98.375 60.9583 102.687 60.9583 107.958V184.625L94.5 170.25L128.042 184.625V107.958C128.042 102.687 123.729 98.375 118.458 98.375ZM118.458 170.25L94.5 159.804L70.5416 170.25V112.75C70.5416 110.115 72.6979 107.958 75.3333 107.958H113.667C116.302 107.958 118.458 110.115 118.458 112.75V170.25Z" fill="white"/>
<path d="M118.458 100.625H70.5416C65.2708 100.625 60.9583 96.3125 60.9583 91.0417V14.375L94.5 28.75L128.042 14.375V91.0417C128.042 96.3125 123.729 100.625 118.458 100.625ZM118.458 28.75L94.5 39.1958L70.5416 28.75V86.25C70.5416 88.8854 72.6979 91.0417 75.3333 91.0417H113.667C116.302 91.0417 118.458 88.8854 118.458 86.25V28.75Z" fill="white"/>
<path d="M90.375 121.458L90.375 73.5416C90.375 68.2708 94.6875 63.9583 99.9583 63.9583L176.625 63.9583L162.25 97.4999L176.625 131.042L99.9583 131.042C94.6875 131.042 90.375 126.729 90.375 121.458ZM162.25 121.458L151.804 97.4999L162.25 73.5416L104.75 73.5416C102.115 73.5416 99.9583 75.6978 99.9583 78.3333L99.9583 116.667C99.9583 119.302 102.115 121.458 104.75 121.458L162.25 121.458Z" fill="white"/>
<path d="M100.625 121.458L100.625 73.5416C100.625 68.2708 96.3125 63.9583 91.0417 63.9583L14.375 63.9583L28.75 97.4999L14.375 131.042L91.0417 131.042C96.3125 131.042 100.625 126.729 100.625 121.458ZM28.75 121.458L39.1958 97.4999L28.75 73.5416L86.25 73.5416C88.8854 73.5416 91.0417 75.6978 91.0417 78.3333L91.0417 116.667C91.0417 119.302 88.8854 121.458 86.25 121.458L28.75 121.458Z" fill="white"/>
</svg>
