<svg width="248" height="517" viewBox="0 0 248 517" fill="none" xmlns="http://www.w3.org/2000/svg">
<g clip-path="url(#clip0)">
<path d="M157.198 100.832L203.16 122.224C212.24 126.45 217.226 136.857 213.89 146.297C210.057 157.145 197.889 162.052 187.724 157.321L134.029 132.331C128.338 129.682 125.069 123.193 127.133 117.282C129.514 110.463 137.145 107.355 143.531 110.327L189.145 131.556C191.534 132.668 192.579 135.533 191.467 137.922C190.355 140.312 187.49 141.357 185.101 140.245L147.089 122.553C145.308 121.724 143.144 122.514 142.315 124.295C141.486 126.076 142.275 128.241 144.056 129.07L181.46 146.478C187.151 149.127 194.221 147.449 197.414 142.065C201.099 135.852 198.563 128.012 192.177 125.04L147.302 104.154C138.222 99.9285 127.049 102.814 121.974 111.446C116.163 121.32 120.223 133.833 130.388 138.564L183.692 163.372C196.16 169.175 211.57 165.249 218.526 153.37C226.481 139.684 220.92 122.562 206.931 116.051L160.231 94.3161C158.45 93.4871 156.286 94.2767 155.457 96.0579C154.628 97.839 155.417 100.003 157.198 100.832Z" fill="white"/>
</g>
<g clip-path="url(#clip1)">
<path d="M90.669 100.433L43.0432 117.807C33.6351 121.239 27.7748 131.18 30.2901 140.872C33.1795 152.008 44.8815 157.94 55.415 154.098L111.054 133.801C116.95 131.65 120.764 125.464 119.214 119.399C117.426 112.4 110.09 108.65 103.473 111.064L56.2073 128.306C53.7315 129.209 52.4448 131.974 53.348 134.45C54.2512 136.925 57.0158 138.212 59.4916 137.309L98.8797 122.94C100.725 122.267 102.814 123.239 103.487 125.085C104.161 126.93 103.189 129.019 101.343 129.693L62.585 143.831C56.6881 145.983 49.7877 143.705 47.0677 138.067C43.9293 131.561 47.1269 123.968 53.7441 121.554L100.245 104.59C109.653 101.158 120.538 104.991 124.854 114.026C129.798 124.362 124.68 136.481 114.147 140.323L58.9136 160.472C45.9943 165.185 30.977 159.952 25.065 147.521C18.312 133.204 25.3199 116.621 39.8147 111.334L88.2058 93.6806C90.0514 93.0073 92.1403 93.9795 92.8135 95.8251C93.4868 97.6707 92.5146 99.7595 90.669 100.433Z" fill="white"/>
</g>
<path d="M148.838 83.9676L146.903 33.3087C146.521 23.3014 138.855 14.6752 128.859 14.0979C117.373 13.4337 108.138 22.7533 108.566 33.9577L110.827 93.1395C111.066 99.412 115.785 104.938 122.033 105.323C129.243 105.767 135.062 99.9341 134.793 92.8955L132.873 42.6197C132.772 39.9862 130.535 37.9138 127.902 38.0144C125.268 38.1149 123.196 40.3519 123.297 42.9854L124.897 84.882C124.972 86.8451 123.406 88.5353 121.443 88.6102C119.48 88.6852 117.79 87.1194 117.715 85.1563L116.14 43.9301C115.9 37.6576 120.184 31.7877 126.385 30.9275C133.539 29.935 139.786 35.3067 140.055 42.3454L141.944 91.8072C142.327 101.815 135.341 111 125.418 112.338C114.064 113.875 104.098 105.289 103.67 94.0842L101.426 35.3333C100.901 21.5912 110.487 8.90155 124.131 7.08573C139.83 5.04763 153.465 16.8025 154.054 32.2204L156.02 83.6933C156.095 85.6564 154.529 87.3466 152.566 87.4216C150.603 87.4965 148.913 85.9307 148.838 83.9676Z" fill="white"/>
<path d="M127.32 191.642C127.832 195.482 130.712 197.53 134.104 197.53C139.864 197.53 145.496 191.77 145.496 181.338C145.496 167.322 135.256 160.922 122.904 160.922C108.632 160.922 97.752 171.29 97.752 184.986C97.752 198.426 106.968 208.154 120.408 208.154C124.952 208.154 130.072 207.13 134.488 205.018L132.696 200.602C128.92 202.522 124.568 203.354 120.408 203.354C109.656 203.354 102.872 195.802 102.872 185.178C102.872 173.914 110.936 165.402 122.776 165.402C133.272 165.402 140.568 170.97 140.568 181.594C140.568 188.698 137.752 192.922 134.488 192.922C132.568 192.922 131.8 191.642 131.608 189.53C131.48 188.442 131.672 187.098 131.8 186.074L133.656 172.122H129.112C128.984 172.698 128.728 175.322 128.6 175.898C127.448 172.954 124.76 171.034 121.24 171.034C113.048 171.034 108.056 178.394 108.056 185.818C108.056 193.818 112.6 197.338 117.784 197.338C122.2 197.338 125.336 195.354 127.32 191.642ZM113.688 185.946C113.688 180.634 116.568 175.898 121.304 175.898C124.824 175.898 126.872 178.138 126.872 182.106C126.872 187.738 124.056 192.602 119 192.602C115.608 192.602 113.688 190.426 113.688 185.946Z" fill="white"/>
<path d="M127.32 263.642C127.832 267.482 130.712 269.53 134.104 269.53C139.864 269.53 145.496 263.77 145.496 253.338C145.496 239.322 135.256 232.922 122.904 232.922C108.632 232.922 97.752 243.29 97.752 256.986C97.752 270.426 106.968 280.154 120.408 280.154C124.952 280.154 130.072 279.13 134.488 277.018L132.696 272.602C128.92 274.522 124.568 275.354 120.408 275.354C109.656 275.354 102.872 267.802 102.872 257.178C102.872 245.914 110.936 237.402 122.776 237.402C133.272 237.402 140.568 242.97 140.568 253.594C140.568 260.698 137.752 264.922 134.488 264.922C132.568 264.922 131.8 263.642 131.608 261.53C131.48 260.442 131.672 259.098 131.8 258.074L133.656 244.122H129.112C128.984 244.698 128.728 247.322 128.6 247.898C127.448 244.954 124.76 243.034 121.24 243.034C113.048 243.034 108.056 250.394 108.056 257.818C108.056 265.818 112.6 269.338 117.784 269.338C122.2 269.338 125.336 267.354 127.32 263.642ZM113.688 257.946C113.688 252.634 116.568 247.898 121.304 247.898C124.824 247.898 126.872 250.138 126.872 254.106C126.872 259.738 124.056 264.602 119 264.602C115.608 264.602 113.688 262.426 113.688 257.946Z" fill="white"/>
<path d="M127.32 337.642C127.832 341.482 130.712 343.53 134.104 343.53C139.864 343.53 145.496 337.77 145.496 327.338C145.496 313.322 135.256 306.922 122.904 306.922C108.632 306.922 97.752 317.29 97.752 330.986C97.752 344.426 106.968 354.154 120.408 354.154C124.952 354.154 130.072 353.13 134.488 351.018L132.696 346.602C128.92 348.522 124.568 349.354 120.408 349.354C109.656 349.354 102.872 341.802 102.872 331.178C102.872 319.914 110.936 311.402 122.776 311.402C133.272 311.402 140.568 316.97 140.568 327.594C140.568 334.698 137.752 338.922 134.488 338.922C132.568 338.922 131.8 337.642 131.608 335.53C131.48 334.442 131.672 333.098 131.8 332.074L133.656 318.122H129.112C128.984 318.698 128.728 321.322 128.6 321.898C127.448 318.954 124.76 317.034 121.24 317.034C113.048 317.034 108.056 324.394 108.056 331.818C108.056 339.818 112.6 343.338 117.784 343.338C122.2 343.338 125.336 341.354 127.32 337.642ZM113.688 331.946C113.688 326.634 116.568 321.898 121.304 321.898C124.824 321.898 126.872 324.138 126.872 328.106C126.872 333.738 124.056 338.602 119 338.602C115.608 338.602 113.688 336.426 113.688 331.946Z" fill="white"/>
<path d="M127.32 409.642C127.832 413.482 130.712 415.53 134.104 415.53C139.864 415.53 145.496 409.77 145.496 399.338C145.496 385.322 135.256 378.922 122.904 378.922C108.632 378.922 97.752 389.29 97.752 402.986C97.752 416.426 106.968 426.154 120.408 426.154C124.952 426.154 130.072 425.13 134.488 423.018L132.696 418.602C128.92 420.522 124.568 421.354 120.408 421.354C109.656 421.354 102.872 413.802 102.872 403.178C102.872 391.914 110.936 383.402 122.776 383.402C133.272 383.402 140.568 388.97 140.568 399.594C140.568 406.698 137.752 410.922 134.488 410.922C132.568 410.922 131.8 409.642 131.608 407.53C131.48 406.442 131.672 405.098 131.8 404.074L133.656 390.122H129.112C128.984 390.698 128.728 393.322 128.6 393.898C127.448 390.954 124.76 389.034 121.24 389.034C113.048 389.034 108.056 396.394 108.056 403.818C108.056 411.818 112.6 415.338 117.784 415.338C122.2 415.338 125.336 413.354 127.32 409.642ZM113.688 403.946C113.688 398.634 116.568 393.898 121.304 393.898C124.824 393.898 126.872 396.138 126.872 400.106C126.872 405.738 124.056 410.602 119 410.602C115.608 410.602 113.688 408.426 113.688 403.946Z" fill="white"/>
<path d="M127.32 480.642C127.832 484.482 130.712 486.53 134.104 486.53C139.864 486.53 145.496 480.77 145.496 470.338C145.496 456.322 135.256 449.922 122.904 449.922C108.632 449.922 97.752 460.29 97.752 473.986C97.752 487.426 106.968 497.154 120.408 497.154C124.952 497.154 130.072 496.13 134.488 494.018L132.696 489.602C128.92 491.522 124.568 492.354 120.408 492.354C109.656 492.354 102.872 484.802 102.872 474.178C102.872 462.914 110.936 454.402 122.776 454.402C133.272 454.402 140.568 459.97 140.568 470.594C140.568 477.698 137.752 481.922 134.488 481.922C132.568 481.922 131.8 480.642 131.608 478.53C131.48 477.442 131.672 476.098 131.8 475.074L133.656 461.122H129.112C128.984 461.698 128.728 464.322 128.6 464.898C127.448 461.954 124.76 460.034 121.24 460.034C113.048 460.034 108.056 467.394 108.056 474.818C108.056 482.818 112.6 486.338 117.784 486.338C122.2 486.338 125.336 484.354 127.32 480.642ZM113.688 474.946C113.688 469.634 116.568 464.898 121.304 464.898C124.824 464.898 126.872 467.138 126.872 471.106C126.872 476.738 124.056 481.602 119 481.602C115.608 481.602 113.688 479.426 113.688 474.946Z" fill="white"/>
<path d="M127.8 132.954L127.8 165.146L134.008 165.146L134.008 132.954L127.8 132.954ZM114.744 132.954L114.744 165.146L120.888 165.146L120.888 132.954L114.744 132.954Z" fill="white"/>
<path d="M127.8 204.954L127.8 237.146L134.008 237.146L134.008 204.954L127.8 204.954ZM114.744 204.954L114.744 237.146L120.888 237.146L120.888 204.954L114.744 204.954Z" fill="white"/>
<path d="M127.8 278.954L127.8 311.146L134.008 311.146L134.008 278.954L127.8 278.954ZM114.744 278.954L114.744 311.146L120.888 311.146L120.888 278.954L114.744 278.954Z" fill="white"/>
<path d="M127.8 350.954L127.8 383.146L134.008 383.146L134.008 350.954L127.8 350.954ZM114.744 350.954L114.744 383.146L120.888 383.146L120.888 350.954L114.744 350.954Z" fill="white"/>
<path d="M127.8 421.954L127.8 454.146L134.008 454.146L134.008 421.954L127.8 421.954ZM114.744 421.954L114.744 454.146L120.888 454.146L120.888 421.954L114.744 421.954Z" fill="white"/>
<defs>
<clipPath id="clip0">
<rect width="115" height="115" fill="white" transform="translate(94.5142 158.864) rotate(-65.0419)"/>
</clipPath>
<clipPath id="clip1">
<rect width="115" height="115" fill="white" transform="matrix(-0.342707 -0.939442 -0.939442 0.342707 148.149 163.623)"/>
</clipPath>
</defs>
</svg>
