<svg width="244" height="438" viewBox="0 0 244 438" fill="none" xmlns="http://www.w3.org/2000/svg">
<path d="M144.672 223.797C144.672 229.703 141.766 233.984 135.953 236.641C138.109 238.172 139.75 240 140.875 242.125C142 244.25 142.562 246.875 142.562 250C142.562 255.25 140.531 259.422 136.469 262.516C132.406 265.641 126.812 267.203 119.688 267.203C116.188 267.203 112.859 266.766 109.703 265.891C106.578 265.016 103.922 263.688 101.734 261.906C97.3906 258.375 95.2188 253.406 95.2188 247L103.938 246.906C103.938 250.969 105.344 254.172 108.156 256.516C110.969 258.891 114.812 260.078 119.688 260.078C123.938 260.078 127.359 259.156 129.953 257.312C132.547 255.5 133.844 253.094 133.844 250.094C133.844 247.312 132.734 245.109 130.516 243.484C128.297 241.828 123.922 240.031 117.391 238.094C111.703 236.594 107.359 234.984 104.359 233.266C101.359 231.516 99.125 229.438 97.6562 227.031C96.2188 224.594 95.5 221.641 95.5 218.172C95.5 212.359 98.3438 208.078 104.031 205.328C101.969 203.797 100.375 201.969 99.25 199.844C98.1562 197.719 97.6094 195.094 97.6094 191.969C97.6094 186.781 99.6875 182.625 103.844 179.5C108.031 176.375 113.594 174.812 120.531 174.812C127.781 174.812 133.438 176.578 137.5 180.109C141.562 183.641 143.594 188.609 143.594 195.016H134.922C134.922 191.109 133.609 187.953 130.984 185.547C128.359 183.109 124.875 181.891 120.531 181.891C116.094 181.891 112.609 182.797 110.078 184.609C107.578 186.391 106.328 188.812 106.328 191.875C106.328 194.031 106.766 195.734 107.641 196.984C108.516 198.234 110 199.375 112.094 200.406C114.219 201.406 117.516 202.531 121.984 203.781C126.484 205.031 130.047 206.219 132.672 207.344C135.328 208.469 137.531 209.797 139.281 211.328C141.062 212.828 142.406 214.594 143.312 216.625C144.219 218.625 144.672 221.016 144.672 223.797ZM119.219 211.609C116.406 210.859 113.828 210.062 111.484 209.219C108.984 209.812 107.141 210.906 105.953 212.5C104.797 214.062 104.219 215.922 104.219 218.078C104.219 220.266 104.641 221.984 105.484 223.234C106.328 224.484 107.781 225.625 109.844 226.656C111.938 227.688 115.203 228.844 119.641 230.125C124.078 231.406 126.984 232.312 128.359 232.844C130.797 232.219 132.672 231.125 133.984 229.562C135.297 227.969 135.953 226.094 135.953 223.938C135.953 221.188 134.859 218.969 132.672 217.281C130.516 215.562 126.031 213.672 119.219 211.609Z" fill="white"/>
<path d="M144.672 308.797C144.672 314.703 141.766 318.984 135.953 321.641C138.109 323.172 139.75 325 140.875 327.125C142 329.25 142.562 331.875 142.562 335C142.562 340.25 140.531 344.422 136.469 347.516C132.406 350.641 126.812 352.203 119.688 352.203C116.188 352.203 112.859 351.766 109.703 350.891C106.578 350.016 103.922 348.688 101.734 346.906C97.3906 343.375 95.2188 338.406 95.2188 332L103.938 331.906C103.938 335.969 105.344 339.172 108.156 341.516C110.969 343.891 114.812 345.078 119.688 345.078C123.938 345.078 127.359 344.156 129.953 342.312C132.547 340.5 133.844 338.094 133.844 335.094C133.844 332.312 132.734 330.109 130.516 328.484C128.297 326.828 123.922 325.031 117.391 323.094C111.703 321.594 107.359 319.984 104.359 318.266C101.359 316.516 99.125 314.438 97.6562 312.031C96.2188 309.594 95.5 306.641 95.5 303.172C95.5 297.359 98.3438 293.078 104.031 290.328C101.969 288.797 100.375 286.969 99.25 284.844C98.1562 282.719 97.6094 280.094 97.6094 276.969C97.6094 271.781 99.6875 267.625 103.844 264.5C108.031 261.375 113.594 259.812 120.531 259.812C127.781 259.812 133.438 261.578 137.5 265.109C141.562 268.641 143.594 273.609 143.594 280.016H134.922C134.922 276.109 133.609 272.953 130.984 270.547C128.359 268.109 124.875 266.891 120.531 266.891C116.094 266.891 112.609 267.797 110.078 269.609C107.578 271.391 106.328 273.812 106.328 276.875C106.328 279.031 106.766 280.734 107.641 281.984C108.516 283.234 110 284.375 112.094 285.406C114.219 286.406 117.516 287.531 121.984 288.781C126.484 290.031 130.047 291.219 132.672 292.344C135.328 293.469 137.531 294.797 139.281 296.328C141.062 297.828 142.406 299.594 143.312 301.625C144.219 303.625 144.672 306.016 144.672 308.797ZM119.219 296.609C116.406 295.859 113.828 295.062 111.484 294.219C108.984 294.812 107.141 295.906 105.953 297.5C104.797 299.062 104.219 300.922 104.219 303.078C104.219 305.266 104.641 306.984 105.484 308.234C106.328 309.484 107.781 310.625 109.844 311.656C111.938 312.688 115.203 313.844 119.641 315.125C124.078 316.406 126.984 317.312 128.359 317.844C130.797 317.219 132.672 316.125 133.984 314.562C135.297 312.969 135.953 311.094 135.953 308.938C135.953 306.188 134.859 303.969 132.672 302.281C130.516 300.562 126.031 298.672 119.219 296.609Z" fill="white"/>
<path d="M144.672 393.797C144.672 399.703 141.766 403.984 135.953 406.641C138.109 408.172 139.75 410 140.875 412.125C142 414.25 142.562 416.875 142.562 420C142.562 425.25 140.531 429.422 136.469 432.516C132.406 435.641 126.812 437.203 119.688 437.203C116.188 437.203 112.859 436.766 109.703 435.891C106.578 435.016 103.922 433.688 101.734 431.906C97.3906 428.375 95.2188 423.406 95.2188 417L103.938 416.906C103.938 420.969 105.344 424.172 108.156 426.516C110.969 428.891 114.812 430.078 119.688 430.078C123.938 430.078 127.359 429.156 129.953 427.312C132.547 425.5 133.844 423.094 133.844 420.094C133.844 417.312 132.734 415.109 130.516 413.484C128.297 411.828 123.922 410.031 117.391 408.094C111.703 406.594 107.359 404.984 104.359 403.266C101.359 401.516 99.125 399.438 97.6562 397.031C96.2188 394.594 95.5 391.641 95.5 388.172C95.5 382.359 98.3438 378.078 104.031 375.328C101.969 373.797 100.375 371.969 99.25 369.844C98.1562 367.719 97.6094 365.094 97.6094 361.969C97.6094 356.781 99.6875 352.625 103.844 349.5C108.031 346.375 113.594 344.812 120.531 344.812C127.781 344.812 133.438 346.578 137.5 350.109C141.562 353.641 143.594 358.609 143.594 365.016H134.922C134.922 361.109 133.609 357.953 130.984 355.547C128.359 353.109 124.875 351.891 120.531 351.891C116.094 351.891 112.609 352.797 110.078 354.609C107.578 356.391 106.328 358.812 106.328 361.875C106.328 364.031 106.766 365.734 107.641 366.984C108.516 368.234 110 369.375 112.094 370.406C114.219 371.406 117.516 372.531 121.984 373.781C126.484 375.031 130.047 376.219 132.672 377.344C135.328 378.469 137.531 379.797 139.281 381.328C141.062 382.828 142.406 384.594 143.312 386.625C144.219 388.625 144.672 391.016 144.672 393.797ZM119.219 381.609C116.406 380.859 113.828 380.062 111.484 379.219C108.984 379.812 107.141 380.906 105.953 382.5C104.797 384.062 104.219 385.922 104.219 388.078C104.219 390.266 104.641 391.984 105.484 393.234C106.328 394.484 107.781 395.625 109.844 396.656C111.938 397.688 115.203 398.844 119.641 400.125C124.078 401.406 126.984 402.312 128.359 402.844C130.797 402.219 132.672 401.125 133.984 399.562C135.297 397.969 135.953 396.094 135.953 393.938C135.953 391.188 134.859 388.969 132.672 387.281C130.516 385.562 126.031 383.672 119.219 381.609Z" fill="white"/>
<g clip-path="url(#clip0)">
<path fill-rule="evenodd" clip-rule="evenodd" d="M112.689 169.962C115.177 170.606 117.235 167.973 116.01 165.716L76.7211 93.2997C75.44 90.9385 71.9233 91.3917 71.2828 94.0005L64.2538 122.628L96.7022 147.997C98.7743 149.617 99.1408 152.61 97.5208 154.682C95.9007 156.754 92.9077 157.121 90.8355 155.501L58.387 130.132L32.3043 143.857C29.927 145.108 30.3354 148.629 32.9358 149.302L112.689 169.962ZM54.7802 121.267L62.0325 91.7293C64.749 80.6657 79.6605 78.744 85.0932 88.7574L80.9072 91.0285L85.0932 88.7574L124.382 161.173C129.579 170.752 120.847 181.915 110.3 179.182L111.495 174.572L110.3 179.182L30.5472 158.523C19.519 155.666 17.7872 140.733 27.8688 135.428L54.7802 121.267Z" fill="white"/>
</g>
<path fill-rule="evenodd" clip-rule="evenodd" d="M130.801 169.962C128.313 170.606 126.255 167.973 127.48 165.716L166.769 93.2997C168.05 90.9385 171.567 91.3917 172.207 94.0005L179.236 122.628L146.788 147.997C144.716 149.617 144.349 152.61 145.969 154.682C147.589 156.754 150.582 157.121 152.654 155.501L185.103 130.132L211.186 143.857C213.563 145.108 213.155 148.629 210.554 149.302L130.801 169.962ZM188.71 121.267L181.457 91.7293C178.741 80.6657 163.829 78.744 158.397 88.7574L162.583 91.0285L158.397 88.7574L119.108 161.173C113.911 170.752 122.642 181.915 133.19 179.182L131.995 174.572L133.19 179.182L212.943 158.523C223.971 155.666 225.703 140.733 215.621 135.428L188.71 121.267Z" fill="white"/>
<g clip-path="url(#clip1)">
<path fill-rule="evenodd" clip-rule="evenodd" d="M123.498 145.153C122.473 147.511 119.131 147.509 118.108 145.154L85.2595 69.5982C84.1885 67.1346 86.7116 64.6434 89.1613 65.7457L116.043 77.8417L116.042 119.03C116.042 121.66 118.174 123.793 120.804 123.793C123.434 123.793 125.567 121.661 125.567 119.03L125.568 77.8419L152.446 65.7483C154.896 64.646 157.418 67.1363 156.347 69.5998L123.498 145.153ZM120.806 69.5399L93.0698 57.0595C82.6809 52.3848 71.9822 62.9482 76.5243 73.3958L80.8919 71.497L76.5243 73.3958L109.372 148.952C113.717 158.945 127.889 158.943 132.233 148.951L127.866 147.052L132.233 148.951L165.082 73.3976C169.624 62.9501 158.927 52.3875 148.538 57.062L120.806 69.5399Z" fill="white"/>
</g>
<defs>
<clipPath id="clip0">
<rect width="127" height="127" fill="white" transform="translate(126.059 63) rotate(83.0212)"/>
</clipPath>
<clipPath id="clip1">
<rect width="127" height="127" fill="white" transform="matrix(0.707107 0.707107 0.707107 -0.707107 31 89.8026)"/>
</clipPath>
</defs>
</svg>
