<svg width="151" height="373" viewBox="0 0 151 373" fill="none" xmlns="http://www.w3.org/2000/svg">
<path fill-rule="evenodd" clip-rule="evenodd" d="M28.6001 28.8741C28.6001 20.299 38.0163 14.5573 45.5042 19.5657L94.4714 52.3182C101.331 56.9065 100.974 67.3201 93.7514 71.3771L44.7841 98.8835C37.285 103.096 28.6001 97.3429 28.6001 89.1329V28.8741ZM40.5816 26.9153C39.4312 26.1458 37.4501 26.8136 37.4501 28.8741V89.1329C37.4501 91.1003 39.2959 91.8209 40.4476 91.174L89.4148 63.6677C90.8479 62.8627 90.9597 60.6115 89.5488 59.6678L40.5816 26.9153Z" fill="white"/>
<path d="M42.4688 211.984H30.1641V90.625H42.4688V211.984Z" fill="white"/>
<path d="M42.4688 303.984H30.1641V182.625H42.4688V303.984Z" fill="white"/>
<path d="M42.4688 264.984H30.1641V143.625H42.4688V264.984Z" fill="white"/>
<path d="M42.4688 356.984H30.1641V235.625H42.4688V356.984Z" fill="white"/>
<path d="M52.9152 168.241C58.2657 163.489 63.9921 159.678 70.0945 156.807C76.1969 153.937 82.3403 152.242 88.5248 151.723C94.7327 151.183 100.003 151.893 104.336 153.854L100.612 160.673C95.059 159.503 88.7913 160.305 81.8092 163.079C74.8271 165.853 67.808 170.374 60.7518 176.641L59.6654 177.606C52.5859 183.894 47.2347 190.339 43.6118 196.943C39.9889 203.546 38.4047 209.739 38.8592 215.521L31.7538 218.321C30.3567 213.877 30.2446 208.669 31.4174 202.695C32.5876 196.766 34.8892 190.981 38.3222 185.34C41.7553 179.7 46.0004 174.55 51.0577 169.891L52.9152 168.241ZM89.6186 211.189C84.3381 215.879 78.5818 219.633 72.3497 222.452C66.1176 225.27 59.8665 226.914 53.5964 227.384C47.3262 227.854 42.048 227.088 37.7615 225.085L41.3806 218.36C46.8274 219.457 53.0068 218.65 59.9188 215.938C66.8308 213.226 73.7059 208.896 80.5439 202.948L82.4014 201.298C89.3875 195.094 94.6932 188.667 98.3187 182.02C101.965 175.396 103.605 169.196 103.239 163.419L110.344 160.619C111.788 165.021 111.944 170.232 110.813 176.252C109.702 182.296 107.425 188.226 103.982 194.043C100.559 199.884 96.297 205.132 91.1957 209.788L89.6186 211.189Z" fill="white"/>
</svg>
