<svg width="126" height="469" viewBox="0 0 126 469" fill="none" xmlns="http://www.w3.org/2000/svg">
<path d="M75.125 201.422C75.125 198.547 74.1094 196.125 72.0781 194.156C70.0781 192.188 66.6875 190.406 61.9062 188.812C55.25 186.781 50.3906 184.141 47.3281 180.891C44.2969 177.609 42.7812 173.453 42.7812 168.422C42.7812 163.297 44.2656 159.094 47.2344 155.812C50.2344 152.531 54.3438 150.578 59.5625 149.953V139.688H66.5469V150C71.7969 150.719 75.875 152.922 78.7812 156.609C81.7188 160.297 83.1875 165.344 83.1875 171.75H74.5625C74.5625 167.344 73.5156 163.844 71.4219 161.25C69.3281 158.656 66.5 157.359 62.9375 157.359C59.2188 157.359 56.375 158.328 54.4062 160.266C52.4375 162.172 51.4531 164.844 51.4531 168.281C51.4531 171.469 52.4844 174.016 54.5469 175.922C56.6406 177.797 60.0625 179.516 64.8125 181.078C69.5938 182.609 73.3125 184.312 75.9688 186.188C78.6562 188.031 80.625 190.188 81.875 192.656C83.1562 195.125 83.7969 198.016 83.7969 201.328C83.7969 206.609 82.2031 210.859 79.0156 214.078C75.8594 217.297 71.4219 219.203 65.7031 219.797V228.75H58.7656V219.797C52.9531 219.266 48.3906 217.203 45.0781 213.609C41.7969 209.984 40.1562 205.078 40.1562 198.891H48.8281C48.8281 203.234 49.9688 206.578 52.25 208.922C54.5312 211.266 57.7656 212.438 61.9531 212.438C66.0469 212.438 69.2656 211.453 71.6094 209.484C73.9531 207.516 75.125 204.828 75.125 201.422Z" fill="white"/>
<path d="M75.125 257.422C75.125 254.547 74.1094 252.125 72.0781 250.156C70.0781 248.188 66.6875 246.406 61.9062 244.812C55.25 242.781 50.3906 240.141 47.3281 236.891C44.2969 233.609 42.7812 229.453 42.7812 224.422C42.7812 219.297 44.2656 215.094 47.2344 211.812C50.2344 208.531 54.3438 206.578 59.5625 205.953V195.688H66.5469V206C71.7969 206.719 75.875 208.922 78.7812 212.609C81.7188 216.297 83.1875 221.344 83.1875 227.75H74.5625C74.5625 223.344 73.5156 219.844 71.4219 217.25C69.3281 214.656 66.5 213.359 62.9375 213.359C59.2188 213.359 56.375 214.328 54.4062 216.266C52.4375 218.172 51.4531 220.844 51.4531 224.281C51.4531 227.469 52.4844 230.016 54.5469 231.922C56.6406 233.797 60.0625 235.516 64.8125 237.078C69.5938 238.609 73.3125 240.312 75.9688 242.188C78.6562 244.031 80.625 246.188 81.875 248.656C83.1562 251.125 83.7969 254.016 83.7969 257.328C83.7969 262.609 82.2031 266.859 79.0156 270.078C75.8594 273.297 71.4219 275.203 65.7031 275.797V284.75H58.7656V275.797C52.9531 275.266 48.3906 273.203 45.0781 269.609C41.7969 265.984 40.1562 261.078 40.1562 254.891H48.8281C48.8281 259.234 49.9688 262.578 52.25 264.922C54.5312 267.266 57.7656 268.438 61.9531 268.438C66.0469 268.438 69.2656 267.453 71.6094 265.484C73.9531 263.516 75.125 260.828 75.125 257.422Z" fill="white"/>
<path d="M75.125 314.422C75.125 311.547 74.1094 309.125 72.0781 307.156C70.0781 305.188 66.6875 303.406 61.9062 301.812C55.25 299.781 50.3906 297.141 47.3281 293.891C44.2969 290.609 42.7812 286.453 42.7812 281.422C42.7812 276.297 44.2656 272.094 47.2344 268.812C50.2344 265.531 54.3438 263.578 59.5625 262.953V252.688H66.5469V263C71.7969 263.719 75.875 265.922 78.7812 269.609C81.7188 273.297 83.1875 278.344 83.1875 284.75H74.5625C74.5625 280.344 73.5156 276.844 71.4219 274.25C69.3281 271.656 66.5 270.359 62.9375 270.359C59.2188 270.359 56.375 271.328 54.4062 273.266C52.4375 275.172 51.4531 277.844 51.4531 281.281C51.4531 284.469 52.4844 287.016 54.5469 288.922C56.6406 290.797 60.0625 292.516 64.8125 294.078C69.5938 295.609 73.3125 297.312 75.9688 299.188C78.6562 301.031 80.625 303.188 81.875 305.656C83.1562 308.125 83.7969 311.016 83.7969 314.328C83.7969 319.609 82.2031 323.859 79.0156 327.078C75.8594 330.297 71.4219 332.203 65.7031 332.797V341.75H58.7656V332.797C52.9531 332.266 48.3906 330.203 45.0781 326.609C41.7969 322.984 40.1562 318.078 40.1562 311.891H48.8281C48.8281 316.234 49.9688 319.578 52.25 321.922C54.5312 324.266 57.7656 325.438 61.9531 325.438C66.0469 325.438 69.2656 324.453 71.6094 322.484C73.9531 320.516 75.125 317.828 75.125 314.422Z" fill="white"/>
<path d="M75.125 370.422C75.125 367.547 74.1094 365.125 72.0781 363.156C70.0781 361.188 66.6875 359.406 61.9062 357.812C55.25 355.781 50.3906 353.141 47.3281 349.891C44.2969 346.609 42.7812 342.453 42.7812 337.422C42.7812 332.297 44.2656 328.094 47.2344 324.812C50.2344 321.531 54.3438 319.578 59.5625 318.953V308.688H66.5469V319C71.7969 319.719 75.875 321.922 78.7812 325.609C81.7188 329.297 83.1875 334.344 83.1875 340.75H74.5625C74.5625 336.344 73.5156 332.844 71.4219 330.25C69.3281 327.656 66.5 326.359 62.9375 326.359C59.2188 326.359 56.375 327.328 54.4062 329.266C52.4375 331.172 51.4531 333.844 51.4531 337.281C51.4531 340.469 52.4844 343.016 54.5469 344.922C56.6406 346.797 60.0625 348.516 64.8125 350.078C69.5938 351.609 73.3125 353.312 75.9688 355.188C78.6562 357.031 80.625 359.188 81.875 361.656C83.1562 364.125 83.7969 367.016 83.7969 370.328C83.7969 375.609 82.2031 379.859 79.0156 383.078C75.8594 386.297 71.4219 388.203 65.7031 388.797V397.75H58.7656V388.797C52.9531 388.266 48.3906 386.203 45.0781 382.609C41.7969 378.984 40.1562 374.078 40.1562 367.891H48.8281C48.8281 372.234 49.9688 375.578 52.25 377.922C54.5312 380.266 57.7656 381.438 61.9531 381.438C66.0469 381.438 69.2656 380.453 71.6094 378.484C73.9531 376.516 75.125 373.828 75.125 370.422Z" fill="white"/>
<path d="M75.125 427.422C75.125 424.547 74.1094 422.125 72.0781 420.156C70.0781 418.188 66.6875 416.406 61.9062 414.812C55.25 412.781 50.3906 410.141 47.3281 406.891C44.2969 403.609 42.7812 399.453 42.7812 394.422C42.7812 389.297 44.2656 385.094 47.2344 381.812C50.2344 378.531 54.3438 376.578 59.5625 375.953V365.688H66.5469V376C71.7969 376.719 75.875 378.922 78.7812 382.609C81.7188 386.297 83.1875 391.344 83.1875 397.75H74.5625C74.5625 393.344 73.5156 389.844 71.4219 387.25C69.3281 384.656 66.5 383.359 62.9375 383.359C59.2188 383.359 56.375 384.328 54.4062 386.266C52.4375 388.172 51.4531 390.844 51.4531 394.281C51.4531 397.469 52.4844 400.016 54.5469 401.922C56.6406 403.797 60.0625 405.516 64.8125 407.078C69.5938 408.609 73.3125 410.312 75.9688 412.188C78.6562 414.031 80.625 416.188 81.875 418.656C83.1562 421.125 83.7969 424.016 83.7969 427.328C83.7969 432.609 82.2031 436.859 79.0156 440.078C75.8594 443.297 71.4219 445.203 65.7031 445.797V454.75H58.7656V445.797C52.9531 445.266 48.3906 443.203 45.0781 439.609C41.7969 435.984 40.1562 431.078 40.1562 424.891H48.8281C48.8281 429.234 49.9688 432.578 52.25 434.922C54.5312 437.266 57.7656 438.438 61.9531 438.438C66.0469 438.438 69.2656 437.453 71.6094 435.484C73.9531 433.516 75.125 430.828 75.125 427.422Z" fill="white"/>
<path d="M59.76 140.048C58.704 133.808 55.92 127.088 51.408 119.888C46.896 112.592 40.464 105.824 32.112 99.584C23.856 93.344 15.6 89.36 7.344 87.632V81.584C15.504 79.664 23.328 76.112 30.816 70.928C38.4 65.648 44.736 59.312 49.824 51.92C55.008 44.336 58.32 36.848 59.76 29.456H65.808C66.672 34.256 68.4 39.2 70.992 44.288C73.584 49.28 76.896 54.08 80.928 58.688C85.056 63.2 89.664 67.28 94.752 70.928C102.336 76.304 110.064 79.856 117.936 81.584V87.632C112.656 88.688 107.184 90.848 101.52 94.112C95.952 97.376 90.768 101.264 85.968 105.776C81.168 110.192 77.232 114.848 74.16 119.744C69.648 126.944 66.864 133.712 65.808 140.048H59.76Z" fill="white"/>
</svg>
